<svg xmlns="http://www.w3.org/2000/svg" viewBox="0 0 900 270" font-family="Arial, Helvetica, sans-serif">
  <rect width="900" height="270" fill="#ffffff"/>
  <rect x="150" y="44" width="276" height="184" fill="#003399"/>
  <polygon points="288.00,64.44 290.30,71.51 297.72,71.51 291.71,75.87 294.01,82.94 288.00,78.57 281.99,82.94 284.29,75.87 278.28,71.51 285.70,71.51" fill="#FFCC00"/><polygon points="318.67,72.66 320.96,79.72 328.39,79.72 322.38,84.09 324.68,91.15 318.67,86.79 312.66,91.15 314.95,84.09 308.94,79.72 316.37,79.72" fill="#FFCC00"/><polygon points="341.12,95.11 343.41,102.17 350.84,102.17 344.83,106.54 347.12,113.60 341.12,109.24 335.11,113.60 337.40,106.54 331.39,102.17 338.82,102.17" fill="#FFCC00"/><polygon points="349.33,125.78 351.63,132.84 359.06,132.84 353.05,137.21 355.34,144.27 349.33,139.90 343.32,144.27 345.62,137.21 339.61,132.84 347.04,132.84" fill="#FFCC00"/><polygon points="341.12,156.44 343.41,163.51 350.84,163.51 344.83,167.87 347.12,174.94 341.12,170.57 335.11,174.94 337.40,167.87 331.39,163.51 338.82,163.51" fill="#FFCC00"/><polygon points="318.67,178.89 320.96,185.96 328.39,185.96 322.38,190.32 324.68,197.39 318.67,193.02 312.66,197.39 314.95,190.32 308.94,185.96 316.37,185.96" fill="#FFCC00"/><polygon points="288.00,187.11 290.30,194.17 297.72,194.17 291.71,198.54 294.01,205.60 288.00,201.24 281.99,205.60 284.29,198.54 278.28,194.17 285.70,194.17" fill="#FFCC00"/><polygon points="257.33,178.89 259.63,185.96 267.06,185.96 261.05,190.32 263.34,197.39 257.33,193.02 251.32,197.39 253.62,190.32 247.61,185.96 255.04,185.96" fill="#FFCC00"/><polygon points="234.88,156.44 237.18,163.51 244.61,163.51 238.60,167.87 240.89,174.94 234.88,170.57 228.88,174.94 231.17,167.87 225.16,163.51 232.59,163.51" fill="#FFCC00"/><polygon points="226.67,125.78 228.96,132.84 236.39,132.84 230.38,137.21 232.68,144.27 226.67,139.90 220.66,144.27 222.95,137.21 216.94,132.84 224.37,132.84" fill="#FFCC00"/><polygon points="234.88,95.11 237.18,102.17 244.61,102.17 238.60,106.54 240.89,113.60 234.88,109.24 228.88,113.60 231.17,106.54 225.16,102.17 232.59,102.17" fill="#FFCC00"/><polygon points="257.33,72.66 259.63,79.72 267.06,79.72 261.05,84.09 263.34,91.15 257.33,86.79 251.32,91.15 253.62,84.09 247.61,79.72 255.04,79.72" fill="#FFCC00"/>
  <text x="470" y="112" font-size="45" font-weight="700" fill="#003399">Financiado por</text>
  <text x="470" y="162" font-size="45" font-weight="700" fill="#003399">la Unión Europea</text>
  <text x="470" y="210" font-size="33" font-weight="400" fill="#5b6670">NextGenerationEU</text>
</svg>
