<svg xmlns="http://www.w3.org/2000/svg" viewBox="0 0 1200 675" font-family="Arial, Helvetica, sans-serif">
  <defs>
    <linearGradient id="node" x1="0" y1="0" x2="1" y2="1">
      <stop offset="0" stop-color="#0e8266"/>
      <stop offset="1" stop-color="#0a4d3c"/>
    </linearGradient>
  </defs>
  <rect width="1200" height="675" fill="#fbfcfb"/>
  <rect x="0" y="0" width="1200" height="10" fill="url(#node)"/>

  <!-- brand + category -->
  <text x="64" y="92" font-size="26" font-weight="800" fill="#16221f" letter-spacing="-0.5">Kodable</text>
  <rect x="64" y="118" width="196" height="40" rx="20" fill="#e3f3ed"/>
  <text x="84" y="144" font-size="17" font-weight="700" fill="#0a4d3c" letter-spacing="1.5">GETTING FOUND</text>

  <!-- headline -->
  <text x="64" y="292" font-size="66" font-weight="800" fill="#16221f" letter-spacing="-2">Getting found when</text>
  <text x="64" y="366" font-size="66" font-weight="800" fill="#0a4d3c" letter-spacing="-2">AI answers first</text>
  <text x="64" y="430" font-size="27" fill="#4b5c56">A plain-English 2026 playbook for local businesses.</text>

  <line x1="64" y1="576" x2="360" y2="576" stroke="#dde6e1" stroke-width="2"/>
  <text x="64" y="616" font-size="22" font-weight="700" fill="#0e8266">kodable.ai</text>

  <!-- AI answer motif, right -->
  <rect x="726" y="150" width="410" height="376" rx="20" fill="#e3f3ed" stroke="#cfe7dd"/>
  <circle cx="766" cy="196" r="15" fill="url(#node)"/>
  <path d="M766 187 l3.5 7 7 2.5 -7 2.5 -3.5 7 -3.5 -7 -7 -2.5 7 -2.5 z" fill="#ffffff"/>
  <text x="790" y="203" font-size="21" font-weight="700" fill="#0a4d3c">AI answer</text>
  <rect x="758" y="236" width="346" height="14" rx="7" fill="#bfe0d3"/>
  <rect x="758" y="266" width="316" height="14" rx="7" fill="#bfe0d3"/>
  <rect x="758" y="296" width="270" height="14" rx="7" fill="#bfe0d3"/>
  <text x="758" y="352" font-size="15" font-weight="700" fill="#0a4d3c" letter-spacing="1.5">SOURCES</text>
  <rect x="758" y="366" width="150" height="52" rx="12" fill="#ffffff" stroke="#cfe7dd"/>
  <circle cx="784" cy="392" r="9" fill="#dde6e1"/>
  <rect x="802" y="386" width="90" height="12" rx="6" fill="#dde6e1"/>
  <rect x="924" y="364" width="180" height="56" rx="12" fill="#ffffff" stroke="#0e8266" stroke-width="2.5"/>
  <circle cx="950" cy="392" r="9" fill="#0e8266"/>
  <text x="968" y="398" font-size="16" font-weight="700" fill="#0a4d3c">your business?</text>
  <rect x="758" y="446" width="346" height="12" rx="6" fill="#cfe7dd"/>
  <rect x="758" y="474" width="300" height="12" rx="6" fill="#cfe7dd"/>
</svg>
